<svg xmlns="http://www.w3.org/2000/svg" viewBox="0 0 1200 800"><rect width="1200" height="800" fill="#f3e5c6"/><rect y="565" width="1200" height="235" fill="#bd5b44"/><path d="M175 480 600 155l425 325v165H175z" fill="#6c4437"/><path d="M115 490 600 105l485 385-46 55L600 195 161 545z" fill="#30393c"/><rect x="505" y="435" width="190" height="250" rx="95" fill="#edd29a"/><path d="M155 165q60 80 120 0t120 0 120 0 120 0 120 0 120 0 120 0 120 0" fill="none" stroke="#9b3327" stroke-width="14"/><g fill="#e7b95a"><circle cx="150" cy="150" r="27"/><circle cx="350" cy="125" r="23"/><circle cx="570" cy="145" r="28"/><circle cx="795" cy="120" r="24"/><circle cx="1035" cy="150" r="29"/></g><g fill="#fff2c5"><circle cx="220" cy="300" r="9"/><circle cx="310" cy="245" r="12"/><circle cx="425" cy="325" r="8"/><circle cx="755" cy="285" r="11"/><circle cx="865" cy="350" r="9"/><circle cx="990" cy="270" r="12"/></g></svg>
