<svg xmlns="http://www.w3.org/2000/svg" viewBox="0 0 1200 800"><rect width="1200" height="800" fill="#202c28"/><rect y="540" width="1200" height="260" fill="#725342"/><path d="M60 340 330 150l280 190v210H60z" fill="#87624a"/><path d="M25 347 330 115l315 232-40 45-275-204L65 392z" fill="#253033"/><path d="M800 540c0-170 95-280 95-280s95 110 95 280z" fill="#e7733f" opacity=".65"/><circle cx="895" cy="365" r="75" fill="#f6b855" opacity=".85"/><ellipse cx="875" cy="570" rx="250" ry="100" fill="#252525"/><ellipse cx="875" cy="552" rx="230" ry="74" fill="#3e3e38"/><path d="M680 540h390M725 505h300M780 480h190" stroke="#c5c4b5" stroke-width="10"/><path d="M740 640 690 770m250-130 45 130" stroke="#222" stroke-width="18"/><circle cx="770" cy="510" r="27" fill="#c9623c"/><circle cx="845" cy="530" r="27" fill="#d99b45"/><circle cx="925" cy="505" r="27" fill="#c9623c"/><circle cx="990" cy="535" r="27" fill="#d99b45"/><circle cx="170" cy="210" r="18" fill="#f2c96d"/><circle cx="260" cy="130" r="12" fill="#f2c96d"/></svg>
