<svg xmlns="http://www.w3.org/2000/svg" viewBox="0 0 1200 800"><defs><linearGradient id="a" x2="0" y2="1"><stop stop-color="#9ccfe0"/><stop offset="1" stop-color="#f7c78e"/></linearGradient></defs><rect width="1200" height="800" fill="url(#a)"/><circle cx="885" cy="185" r="82" fill="#fff0af"/><path d="M0 480 190 290l170 170 180-230 190 250 180-150 290 220v250H0z" fill="#7b9a78"/><path d="M0 540 230 370l150 145 170-220 170 215 230-175 250 180v285H0z" fill="#506f58"/><path d="M0 650q180-70 360 0t360 0 480 0v150H0z" fill="#365945"/><path d="M340 565 540 405l200 160v130H340z" fill="#724d3d"/><path d="m305 570 235-200 235 200-32 38-203-170-203 170z" fill="#303d3d"/><rect x="492" y="525" width="94" height="170" fill="#e6d2a3"/><path d="M0 720q240-42 480 0t720 0" stroke="#e4bf77" stroke-width="11" fill="none" opacity=".8"/></svg>
