<svg xmlns="http://www.w3.org/2000/svg" viewBox="0 0 1200 800"><defs><linearGradient id="sky" x2="0" y2="1"><stop stop-color="#b9ddeb"/><stop offset="1" stop-color="#f6d7ab"/></linearGradient><linearGradient id="water" x2="1"><stop stop-color="#59bdd0"/><stop offset="1" stop-color="#a9e0dd"/></linearGradient></defs><rect width="1200" height="800" fill="url(#sky)"/><rect y="440" width="1200" height="360" fill="#d8c3a0"/><path d="M70 380 330 180l260 200V520H70z" fill="#5d4034"/><path d="M40 385 330 150l290 235-38 42L330 226 80 428z" fill="#313c40"/><path d="M670 360 900 185l230 175v160H670z" fill="#67483a"/><path d="m640 365 260-215 260 215-34 42-226-188-226 188z" fill="#313c40"/><rect x="390" y="490" width="650" height="220" rx="20" fill="#e8f4ed"/><rect x="415" y="510" width="600" height="180" rx="14" fill="url(#water)"/><path d="M430 570q70-35 140 0t140 0 140 0 140 0" fill="none" stroke="#d5f6ed" stroke-width="12" opacity=".75"/><circle cx="1080" cy="400" r="58" fill="#f7c86d"/><path d="M1080 340v120m-60-60h120" stroke="#fff0c5" stroke-width="10" opacity=".7"/></svg>
